<svg width="26" height="18" viewBox="0 0 26 18" fill="none" xmlns="http://www.w3.org/2000/svg">
<path d="M23.6 4.27692H23.8769V4V3C23.8769 2.29569 23.3043 1.72308 22.6 1.72308H3C2.29569 1.72308 1.72308 2.29569 1.72308 3V4V4.27692H2H23.6ZM2 5.72308H1.72308V6V15C1.72308 15.7043 2.29569 16.2769 3 16.2769H22.6C23.3043 16.2769 23.8769 15.7043 23.8769 15V6V5.72308H23.6H2ZM3 0.276923H22.6C24.1014 0.276923 25.3231 1.49864 25.3231 3V15C25.3231 16.5014 24.1014 17.7231 22.6 17.7231H3C1.49864 17.7231 0.276923 16.5014 0.276923 15V3C0.276923 1.49864 1.49864 0.276923 3 0.276923ZM21.8231 13.25C21.8231 13.7875 21.3875 14.2231 20.85 14.2231C20.3125 14.2231 19.8769 13.7875 19.8769 13.25C19.8769 12.7125 20.3125 12.2769 20.85 12.2769C21.3875 12.2769 21.8231 12.7125 21.8231 13.25ZM18.3231 13.25C18.3231 13.7875 17.8875 14.2231 17.35 14.2231C16.8125 14.2231 16.3769 13.7875 16.3769 13.25C16.3769 12.7125 16.8125 12.2769 17.35 12.2769C17.8875 12.2769 18.3231 12.7125 18.3231 13.25Z" fill="#F27B1A" stroke="white" stroke-width="0.553846"/>
</svg>
